HIERARCHY
ROOT Hips
{
  OFFSET 0.000000 0.000000 0.000000
  CHANNELS 6 Xposition Yposition Zposition Xrotation Yrotation Zrotation
  JOINT Spine
  {
    OFFSET 1.153752 24.040563 -4.909010
    CHANNELS 3 Xrotation Yrotation Zrotation
    JOINT Chest
    {
      OFFSET 1.153752 24.040563 -4.909010
      CHANNELS 3 Xrotation Yrotation Zrotation
      JOINT Neck
      {
        OFFSET -0.089964 4.932851 -8.548945
        CHANNELS 3 Xrotation Yrotation Zrotation
        JOINT Head
        {
          OFFSET -0.981514 5.437762 -12.351498
          CHANNELS 3 Xrotation Yrotation Zrotation
          End Site
          {
            OFFSET -0.294454 1.631329 -3.705449
          }
        }
      }
      JOINT LeftCollar
      {
        OFFSET 3.000000 4.000000 0.000000
        CHANNELS 3 Xrotation Yrotation Zrotation
        JOINT LeftShoulder
        {
          OFFSET 16.168012 -6.279607 -4.266810
          CHANNELS 3 Xrotation Yrotation Zrotation
          JOINT LeftArm
          {
            OFFSET 6.545061 -21.632230 2.960170
            CHANNELS 3 Xrotation Yrotation Zrotation
            JOINT LeftForeArm
            {
              OFFSET 1.498368 -23.182161 2.338304
              CHANNELS 3 Xrotation Yrotation Zrotation
              JOINT LeftHand
              {
                OFFSET -1.465154 -3.436964 -0.741780
                CHANNELS 3 Xrotation Yrotation Zrotation
                End Site
                {
                  OFFSET -0.439546 -1.031089 -0.222534
                }
              }
            }
          }
        }
      }
      JOINT RightCollar
      {
        OFFSET -3.000000 4.000000 0.000000
        CHANNELS 3 Xrotation Yrotation Zrotation
        JOINT RightShoulder
        {
          OFFSET -16.168012 6.279607 4.266810
          CHANNELS 3 Xrotation Yrotation Zrotation
          JOINT RightArm
          {
            OFFSET -21.602294 -8.789214 -2.250702
            CHANNELS 3 Xrotation Yrotation Zrotation
            JOINT RightForeArm
            {
              OFFSET -22.892153 1.498261 -8.563673
              CHANNELS 3 Xrotation Yrotation Zrotation
              JOINT RightHand
              {
                OFFSET -1.659101 2.167831 -4.005455
                CHANNELS 3 Xrotation Yrotation Zrotation
                End Site
                {
                  OFFSET -0.497730 0.650349 -1.201637
                }
              }
            }
          }
        }
      }
    }
  }
  JOINT LeftUpLeg
  {
    OFFSET 8.955008 -0.525145 1.977289
    CHANNELS 3 Xrotation Yrotation Zrotation
    JOINT LeftLeg
    {
      OFFSET 1.504921 -41.558457 -0.051202
      CHANNELS 3 Xrotation Yrotation Zrotation
      JOINT LeftFoot
      {
        OFFSET -2.334462 -39.878169 12.105340
        CHANNELS 3 Xrotation Yrotation Zrotation
        End Site
        {
          OFFSET -0.700339 -11.963451 3.631602
        }
      }
    }
  }
  JOINT RightUpLeg
  {
    OFFSET -8.955008 0.525145 -1.977289
    CHANNELS 3 Xrotation Yrotation Zrotation
    JOINT RightLeg
    {
      OFFSET 2.492134 -34.880539 -0.332581
      CHANNELS 3 Xrotation Yrotation Zrotation
      JOINT RightFoot
      {
        OFFSET -1.650886 -42.546039 9.164183
        CHANNELS 3 Xrotation Yrotation Zrotation
        End Site
        {
          OFFSET -0.495266 -12.763812 2.749255
        }
      }
    }
  }
}
MOTION
Frames: 14
Frame Time: 0.083333
0.360774 63.026434 -5.204568 4.457723 -0.289479 -0.471983 0.000000 0.000000 0.000000 -0.272178 2.354649 1.985966 -1.511035 -0.976206 -1.222886 -172.022706 -0.716895 -11.839809 -12.369911 -20.506098 1.105032 2.533977 16.702106 -9.534667 4.373657 3.717617 6.675198 0.000000 0.000000 0.000000 0.000000 0.000000 0.000000 -12.369911 -20.506098 1.105032 -21.363020 -23.429974 110.388951 -132.729060 32.907783 101.913660 0.000000 0.000000 0.000000 0.000000 0.000000 0.000000 5.914773 0.995211 -3.646064 -23.571808 -0.818550 4.699425 0.000000 0.000000 0.000000 -8.338558 0.082127 7.239971 -3.571463 -1.342822 -14.329863 0.000000 0.000000 0.000000
0.337828 62.982799 -5.192571 3.977075 -0.249357 -0.357389 0.000000 0.000000 0.000000 0.362302 2.363257 1.914774 -1.618355 -1.038267 -1.288009 -172.007062 0.567663 -12.438671 -13.164500 -21.703475 0.909789 3.490474 18.337149 -9.640262 3.021631 3.505102 6.597063 0.000000 0.000000 0.000000 0.000000 0.000000 0.000000 -13.164500 -21.703475 0.909789 -23.437402 -32.889332 113.082311 -119.669507 37.089768 57.376851 0.000000 0.000000 0.000000 0.000000 0.000000 0.000000 6.408328 0.933222 -3.839506 -23.567497 -0.793943 4.855173 0.000000 0.000000 0.000000 -6.402846 0.076492 6.486752 -7.254332 -1.074716 -13.500584 0.000000 0.000000 0.000000
0.326808 62.911288 -4.969596 3.381951 -0.200592 -0.227113 0.000000 0.000000 0.000000 1.082302 2.369644 1.832315 -1.701924 -1.131581 -1.368677 -171.841963 1.748301 -13.490443 -14.145896 -23.320962 0.829643 3.981508 19.099655 -9.583110 2.346530 3.368377 6.520786 0.000000 0.000000 0.000000 0.000000 0.000000 0.000000 -14.145896 -23.320962 0.829643 -22.939616 -33.649221 113.204751 -117.466390 33.387099 57.633693 0.000000 0.000000 0.000000 0.000000 0.000000 0.000000 6.602164 0.890570 -4.081039 -23.170073 -0.783687 5.124487 0.000000 0.000000 0.000000 -3.783163 0.093554 5.127056 -13.287993 -0.606061 -11.726503 0.000000 0.000000 0.000000
0.329069 62.834780 -4.795388 3.108455 -0.166628 -0.103429 0.000000 0.000000 0.000000 1.295927 2.354760 1.718601 -1.703918 -1.221693 -1.414131 -171.740147 1.865487 -14.138327 -14.467353 -24.042238 0.690550 3.846506 18.849303 -9.294031 1.999147 3.309038 6.629026 0.000000 0.000000 0.000000 0.000000 0.000000 0.000000 -14.467353 -24.042238 0.690550 -22.269594 -33.893548 111.690702 -116.706371 27.248293 58.181761 0.000000 0.000000 0.000000 0.000000 0.000000 0.000000 6.461065 0.882742 -4.389796 -22.871960 -0.790133 5.552920 0.000000 0.000000 0.000000 -3.619787 0.095794 4.653989 -13.535701 -0.557640 -10.984931 0.000000 0.000000 0.000000
0.326780 62.724675 -4.642156 3.179119 -0.154771 -0.017340 0.000000 0.000000 0.000000 1.164026 2.331186 1.620104 -1.672188 -1.271657 -1.429493 -171.660100 1.902965 -14.627851 -14.248751 -23.742312 0.391602 3.921513 18.839700 -9.249678 1.722869 3.249096 6.700551 0.000000 0.000000 0.000000 0.000000 0.000000 0.000000 -14.248751 -23.742312 0.391602 -21.672007 -34.633488 110.278081 -115.134342 23.127115 58.065993 0.000000 0.000000 0.000000 0.000000 0.000000 0.000000 6.436202 0.860506 -4.585556 -22.599481 -0.789703 5.768161 0.000000 0.000000 0.000000 -3.423005 0.091282 4.283292 -13.667003 -0.526405 -10.446723 0.000000 0.000000 0.000000
0.315141 62.553947 -4.300896 3.153134 -0.137810 0.072508 0.000000 0.000000 0.000000 1.183761 2.284293 1.508167 -1.660596 -1.297622 -1.434750 -171.741979 1.810555 -14.847821 -14.205803 -23.672193 0.281070 4.015071 18.867024 -9.180705 1.781681 3.179732 6.478166 0.000000 0.000000 0.000000 0.000000 0.000000 0.000000 -14.205803 -23.672193 0.281070 -21.372323 -33.876605 109.247666 -115.578528 20.453138 58.490177 0.000000 0.000000 0.000000 0.000000 0.000000 0.000000 6.250390 0.865909 -4.873473 -22.256401 -0.794814 6.215916 0.000000 0.000000 0.000000 -3.445370 0.096104 4.047394 -13.565200 -0.519265 -10.111798 0.000000 0.000000 0.000000
0.278218 62.266204 -3.636947 3.286985 -0.134114 0.130404 0.000000 0.000000 0.000000 1.070585 2.259505 1.436879 -1.662488 -1.310378 -1.439014 -171.888525 1.549787 -14.908393 -14.197299 -23.626191 0.376451 4.302759 18.981698 -9.235540 1.676416 3.032554 6.167693 0.000000 0.000000 0.000000 0.000000 0.000000 0.000000 -14.197299 -23.626191 0.376451 -21.121588 -32.682758 108.184539 -116.474299 19.481172 58.509771 0.000000 0.000000 0.000000 0.000000 0.000000 0.000000 5.951946 0.895308 -5.079408 -21.616032 -0.790903 6.677300 0.000000 0.000000 0.000000 -3.534994 0.117171 3.782364 -13.206033 -0.513513 -9.574803 0.000000 0.000000 0.000000
0.274185 61.924172 -2.815315 3.531963 -0.147903 0.118974 0.000000 0.000000 0.000000 0.920207 2.277856 1.459849 -1.689953 -1.315711 -1.456538 -172.046654 0.931500 -14.784353 -14.300373 -23.643503 0.554705 4.154317 18.498553 -8.996159 1.454472 2.893261 5.853417 0.000000 0.000000 0.000000 0.000000 0.000000 0.000000 -14.300373 -23.643503 0.554705 -20.991754 -32.470149 106.515711 -117.044592 19.011725 57.882826 0.000000 0.000000 0.000000 0.000000 0.000000 0.000000 5.519287 0.935954 -5.113746 -20.603333 -0.776407 6.954539 0.000000 0.000000 0.000000 -3.737272 0.153068 3.520674 -12.588415 -0.516811 -8.943164 0.000000 0.000000 0.000000
0.325574 61.587210 -2.205364 3.913023 -0.177135 0.055622 0.000000 0.000000 0.000000 0.558490 2.328511 1.541058 -1.669918 -1.316857 -1.465695 -172.170825 0.403334 -14.649156 -14.023159 -23.086410 0.659724 3.924035 17.922181 -8.625761 1.359778 2.767052 5.558092 0.000000 0.000000 0.000000 0.000000 0.000000 0.000000 -14.023159 -23.086410 0.659724 -20.380989 -32.917384 103.012149 -116.679151 14.840835 57.134271 0.000000 0.000000 0.000000 0.000000 0.000000 0.000000 4.991047 0.962346 -5.142435 -19.706172 -0.772155 7.084619 0.000000 0.000000 0.000000 -4.192244 0.182022 3.125297 -11.483183 -0.527076 -8.160657 0.000000 0.000000 0.000000
0.405069 61.373830 -1.942187 4.387091 -0.202018 0.043296 0.000000 0.000000 0.000000 0.075780 2.341242 1.544158 -1.648841 -1.307517 -1.456098 -172.131655 0.425869 -14.616189 -13.637356 -22.393416 0.859486 3.950914 17.916332 -7.745282 1.546826 2.542862 4.798684 0.000000 0.000000 0.000000 0.000000 0.000000 0.000000 -13.637356 -22.393416 0.859486 -18.959159 -33.171941 97.594478 -116.015081 6.641497 56.503837 0.000000 0.000000 0.000000 0.000000 0.000000 0.000000 4.334865 0.989845 -5.490808 -19.136719 -0.825873 7.489657 0.000000 0.000000 0.000000 -5.190381 0.187012 2.658949 -9.296773 -0.547339 -7.371830 0.000000 0.000000 0.000000
0.410510 61.308872 -2.220217 4.962217 -0.217861 0.116527 0.000000 0.000000 0.000000 -0.462404 2.296337 1.428215 -1.630556 -1.289700 -1.435112 -172.072141 0.885418 -14.491373 -13.505597 -22.109594 1.237306 3.717991 18.755125 -5.372352 2.154993 2.205341 2.737258 0.000000 0.000000 0.000000 0.000000 0.000000 0.000000 -13.505597 -22.109594 1.237306 -17.095995 -32.630324 91.613316 -115.271756 -0.271372 55.291664 0.000000 0.000000 0.000000 0.000000 0.000000 0.000000 3.864224 0.999653 -5.935319 -18.974538 -0.862606 7.980837 0.000000 0.000000 0.000000 -5.934537 0.177367 2.575846 -7.248399 -0.581366 -7.365801 0.000000 0.000000 0.000000
0.284748 61.482724 -3.767270 5.362774 -0.216439 0.249000 0.000000 0.000000 0.000000 -0.883656 2.195479 1.216709 -1.631795 -1.274140 -1.396167 -172.135456 1.344718 -14.237488 -13.667421 -22.520866 1.852392 3.386331 20.020502 -0.779985 3.141059 1.198575 -1.614828 0.000000 0.000000 0.000000 0.000000 0.000000 0.000000 -13.667421 -22.520866 1.852392 -15.962731 -32.952807 86.199127 -113.820839 -4.125870 53.737543 0.000000 0.000000 0.000000 0.000000 0.000000 0.000000 2.920265 0.964394 -6.419798 -18.630084 -0.759639 8.714572 0.000000 0.000000 0.000000 -4.906888 0.232106 3.743047 -10.178020 -0.758189 -10.093105 0.000000 0.000000 0.000000
0.068162 61.733917 -5.573526 5.592324 -0.216187 0.323268 0.000000 0.000000 0.000000 -1.163934 2.140447 1.095601 -1.626500 -1.267876 -1.370324 -172.528507 1.625766 -14.200235 -13.772677 -22.900119 2.731038 2.749787 21.548138 5.718697 4.237314 -0.515827 -7.984277 0.000000 0.000000 0.000000 0.000000 0.000000 0.000000 -13.772677 -22.900119 2.731038 -16.059801 -33.207226 82.533734 -112.566319 -5.786839 53.022255 0.000000 0.000000 0.000000 0.000000 0.000000 0.000000 0.021940 0.772365 -6.535436 -16.172629 -0.204205 9.445132 0.000000 0.000000 0.000000 -5.805428 0.216353 5.296153 -9.967741 -0.817856 -12.472229 0.000000 0.000000 0.000000
-0.119979 61.818496 -6.381115 5.742868 -0.244092 0.189355 0.000000 0.000000 0.000000 -1.497464 2.226714 1.263599 -1.621400 -1.291812 -1.373988 -172.936256 1.924671 -14.337425 -13.709702 -23.250415 4.012619 3.476270 22.995749 11.429945 5.228299 -2.866727 -13.594740 0.000000 0.000000 0.000000 0.000000 0.000000 0.000000 -13.709702 -23.250415 4.012619 -16.599953 -32.652759 80.848362 -112.802890 -6.795721 53.116773 0.000000 0.000000 0.000000 0.000000 0.000000 0.000000 -4.182948 0.439658 -6.021956 -11.434846 0.673255 9.578627 0.000000 0.000000 0.000000 -6.937635 0.199780 7.292614 -9.701201 -0.887699 -15.304934 0.000000 0.000000 0.000000
